<mxfile host="app.diagrams.net" agent="Mozilla/5.0 (Windows NT 10.0; Win64; x64) AppleWebKit/537.36 (KHTML, like Gecko) Chrome/132.0.0.0 Safari/537.36" version="26.0.14">
  <diagram name="PÃ¡gina-1" id="0CO5vAsrazv2ko-W1t8u">
    <mxGraphModel dx="1434" dy="738" grid="1" gridSize="13" guides="1" tooltips="1" connect="1" arrows="1" fold="1" page="1" pageScale="1" pageWidth="827" pageHeight="1169" math="0" shadow="0">
      <root>
        <mxCell id="0" />
        <mxCell id="1" parent="0" />
        <mxCell id="PI9V1V8THwJFbOwniwM3-1" value="" style="rounded=0;whiteSpace=wrap;html=1;" vertex="1" parent="1">
          <mxGeometry x="221" y="40" width="579" height="80" as="geometry" />
        </mxCell>
        <mxCell id="PI9V1V8THwJFbOwniwM3-2" value="" style="rounded=0;whiteSpace=wrap;html=1;" vertex="1" parent="1">
          <mxGeometry x="234" y="50" width="60" height="40" as="geometry" />
        </mxCell>
        <mxCell id="PI9V1V8THwJFbOwniwM3-3" value="" style="rounded=0;whiteSpace=wrap;html=1;" vertex="1" parent="1">
          <mxGeometry x="510" y="50" width="270" height="40" as="geometry" />
        </mxCell>
        <mxCell id="PI9V1V8THwJFbOwniwM3-4" value="" style="strokeWidth=2;html=1;shape=mxgraph.flowchart.annotation_2;align=left;labelPosition=right;pointerEvents=1;" vertex="1" parent="1">
          <mxGeometry x="169" y="40" width="50" height="80" as="geometry" />
        </mxCell>
        <mxCell id="PI9V1V8THwJFbOwniwM3-8" value="" style="rounded=0;whiteSpace=wrap;html=1;" vertex="1" parent="1">
          <mxGeometry x="221" y="120" width="579" height="220" as="geometry" />
        </mxCell>
        <mxCell id="PI9V1V8THwJFbOwniwM3-10" value="" style="strokeWidth=2;html=1;shape=mxgraph.flowchart.annotation_2;align=left;labelPosition=right;pointerEvents=1;" vertex="1" parent="1">
          <mxGeometry x="169" y="120" width="52" height="218" as="geometry" />
        </mxCell>
        <mxCell id="PI9V1V8THwJFbOwniwM3-11" value="" style="strokeWidth=2;html=1;shape=mxgraph.flowchart.annotation_2;align=left;labelPosition=right;pointerEvents=1;" vertex="1" parent="1">
          <mxGeometry x="65" y="42" width="52" height="298" as="geometry" />
        </mxCell>
        <mxCell id="PI9V1V8THwJFbOwniwM3-12" value="" style="rounded=0;whiteSpace=wrap;html=1;" vertex="1" parent="1">
          <mxGeometry x="221" y="340" width="579" height="154" as="geometry" />
        </mxCell>
        <mxCell id="PI9V1V8THwJFbOwniwM3-13" value="" style="rounded=0;whiteSpace=wrap;html=1;" vertex="1" parent="1">
          <mxGeometry x="221" y="494" width="579" height="286" as="geometry" />
        </mxCell>
        <mxCell id="PI9V1V8THwJFbOwniwM3-14" value="" style="rounded=0;whiteSpace=wrap;html=1;" vertex="1" parent="1">
          <mxGeometry x="250" y="358.5" width="218" height="117" as="geometry" />
        </mxCell>
        <mxCell id="PI9V1V8THwJFbOwniwM3-15" value="" style="rounded=0;whiteSpace=wrap;html=1;" vertex="1" parent="1">
          <mxGeometry x="520" y="358.5" width="218" height="117" as="geometry" />
        </mxCell>
        <mxCell id="PI9V1V8THwJFbOwniwM3-16" value="" style="rounded=0;whiteSpace=wrap;html=1;" vertex="1" parent="1">
          <mxGeometry x="221" y="559" width="579" height="26" as="geometry" />
        </mxCell>
        <mxCell id="PI9V1V8THwJFbOwniwM3-17" value="" style="rounded=0;whiteSpace=wrap;html=1;" vertex="1" parent="1">
          <mxGeometry x="221" y="780" width="579" height="234" as="geometry" />
        </mxCell>
        <mxCell id="PI9V1V8THwJFbOwniwM3-18" value="" style="rounded=0;whiteSpace=wrap;html=1;" vertex="1" parent="1">
          <mxGeometry x="221" y="650" width="579" height="26" as="geometry" />
        </mxCell>
        <mxCell id="PI9V1V8THwJFbOwniwM3-19" value="" style="rounded=0;whiteSpace=wrap;html=1;" vertex="1" parent="1">
          <mxGeometry x="390" y="819" width="189" height="26" as="geometry" />
        </mxCell>
        <mxCell id="PI9V1V8THwJFbOwniwM3-24" value="" style="rounded=0;whiteSpace=wrap;html=1;" vertex="1" parent="1">
          <mxGeometry x="234" y="858" width="130" height="130" as="geometry" />
        </mxCell>
        <mxCell id="PI9V1V8THwJFbOwniwM3-28" value="" style="rounded=0;whiteSpace=wrap;html=1;" vertex="1" parent="1">
          <mxGeometry x="221" y="1014" width="579" height="260" as="geometry" />
        </mxCell>
        <mxCell id="PI9V1V8THwJFbOwniwM3-32" value="" style="rounded=0;whiteSpace=wrap;html=1;" vertex="1" parent="1">
          <mxGeometry x="663" y="858" width="130" height="130" as="geometry" />
        </mxCell>
        <mxCell id="PI9V1V8THwJFbOwniwM3-33" value="" style="rounded=0;whiteSpace=wrap;html=1;" vertex="1" parent="1">
          <mxGeometry x="520" y="858" width="130" height="130" as="geometry" />
        </mxCell>
        <mxCell id="PI9V1V8THwJFbOwniwM3-34" value="" style="rounded=0;whiteSpace=wrap;html=1;" vertex="1" parent="1">
          <mxGeometry x="377" y="858" width="130" height="130" as="geometry" />
        </mxCell>
        <mxCell id="PI9V1V8THwJFbOwniwM3-35" value="" style="rounded=0;whiteSpace=wrap;html=1;" vertex="1" parent="1">
          <mxGeometry x="257" y="1066" width="55" height="26" as="geometry" />
        </mxCell>
        <mxCell id="PI9V1V8THwJFbOwniwM3-36" value="" style="rounded=0;whiteSpace=wrap;html=1;" vertex="1" parent="1">
          <mxGeometry x="595" y="1066" width="55" height="26" as="geometry" />
        </mxCell>
        <mxCell id="PI9V1V8THwJFbOwniwM3-37" value="" style="rounded=0;whiteSpace=wrap;html=1;" vertex="1" parent="1">
          <mxGeometry x="483" y="1066" width="55" height="26" as="geometry" />
        </mxCell>
        <mxCell id="PI9V1V8THwJFbOwniwM3-38" value="" style="rounded=0;whiteSpace=wrap;html=1;" vertex="1" parent="1">
          <mxGeometry x="364" y="1066" width="55" height="26" as="geometry" />
        </mxCell>
        <mxCell id="PI9V1V8THwJFbOwniwM3-41" value="" style="rounded=0;whiteSpace=wrap;html=1;" vertex="1" parent="1">
          <mxGeometry x="700.5" y="1066" width="55" height="26" as="geometry" />
        </mxCell>
        <mxCell id="PI9V1V8THwJFbOwniwM3-42" value="" style="strokeWidth=2;html=1;shape=mxgraph.flowchart.annotation_2;align=left;labelPosition=right;pointerEvents=1;" vertex="1" parent="1">
          <mxGeometry x="169" y="338" width="50" height="156" as="geometry" />
        </mxCell>
        <mxCell id="PI9V1V8THwJFbOwniwM3-43" value="" style="strokeWidth=2;html=1;shape=mxgraph.flowchart.annotation_2;align=left;labelPosition=right;pointerEvents=1;" vertex="1" parent="1">
          <mxGeometry x="169" y="494" width="50" height="286" as="geometry" />
        </mxCell>
        <mxCell id="PI9V1V8THwJFbOwniwM3-44" value="" style="strokeWidth=2;html=1;shape=mxgraph.flowchart.annotation_2;align=left;labelPosition=right;pointerEvents=1;" vertex="1" parent="1">
          <mxGeometry x="169" y="780" width="50" height="234" as="geometry" />
        </mxCell>
        <mxCell id="PI9V1V8THwJFbOwniwM3-46" value="" style="strokeWidth=2;html=1;shape=mxgraph.flowchart.annotation_2;align=left;labelPosition=right;pointerEvents=1;" vertex="1" parent="1">
          <mxGeometry x="65" y="1014" width="52" height="260" as="geometry" />
        </mxCell>
        <mxCell id="PI9V1V8THwJFbOwniwM3-47" value="Navbar" style="text;html=1;align=center;verticalAlign=middle;whiteSpace=wrap;rounded=0;" vertex="1" parent="1">
          <mxGeometry x="109" y="65" width="60" height="30" as="geometry" />
        </mxCell>
        <mxCell id="PI9V1V8THwJFbOwniwM3-48" value="Contenedor con titulo de pagina" style="text;html=1;align=center;verticalAlign=middle;whiteSpace=wrap;rounded=0;" vertex="1" parent="1">
          <mxGeometry x="109" y="214" width="60" height="30" as="geometry" />
        </mxCell>
        <mxCell id="PI9V1V8THwJFbOwniwM3-49" value="" style="rounded=1;whiteSpace=wrap;html=1;" vertex="1" parent="1">
          <mxGeometry x="250" y="164" width="169" height="130" as="geometry" />
        </mxCell>
        <mxCell id="PI9V1V8THwJFbOwniwM3-54" value="" style="rounded=1;whiteSpace=wrap;html=1;" vertex="1" parent="1">
          <mxGeometry x="286" y="260" width="63.5" height="21" as="geometry" />
        </mxCell>
        <mxCell id="PI9V1V8THwJFbOwniwM3-55" value="btn" style="text;html=1;align=center;verticalAlign=middle;whiteSpace=wrap;rounded=0;" vertex="1" parent="1">
          <mxGeometry x="286" y="255.5" width="60" height="30" as="geometry" />
        </mxCell>
        <mxCell id="PI9V1V8THwJFbOwniwM3-56" value="Card" style="text;html=1;align=center;verticalAlign=middle;whiteSpace=wrap;rounded=0;" vertex="1" parent="1">
          <mxGeometry x="109" y="402" width="60" height="30" as="geometry" />
        </mxCell>
        <mxCell id="PI9V1V8THwJFbOwniwM3-57" value="efecto parallax" style="text;html=1;align=center;verticalAlign=middle;whiteSpace=wrap;rounded=0;" vertex="1" parent="1">
          <mxGeometry x="109" y="620" width="60" height="30" as="geometry" />
        </mxCell>
        <mxCell id="PI9V1V8THwJFbOwniwM3-58" value="productos/&lt;div&gt;destinos&lt;/div&gt;" style="text;html=1;align=center;verticalAlign=middle;whiteSpace=wrap;rounded=0;" vertex="1" parent="1">
          <mxGeometry x="109" y="882" width="60" height="30" as="geometry" />
        </mxCell>
        <mxCell id="PI9V1V8THwJFbOwniwM3-59" value="FOOTER" style="text;html=1;align=center;verticalAlign=middle;whiteSpace=wrap;rounded=0;" vertex="1" parent="1">
          <mxGeometry x="5" y="1129" width="60" height="30" as="geometry" />
        </mxCell>
        <mxCell id="PI9V1V8THwJFbOwniwM3-60" value="HEADER" style="text;html=1;align=center;verticalAlign=middle;whiteSpace=wrap;rounded=0;" vertex="1" parent="1">
          <mxGeometry y="176" width="60" height="30" as="geometry" />
        </mxCell>
        <mxCell id="PI9V1V8THwJFbOwniwM3-61" value="MAIN" style="text;html=1;align=center;verticalAlign=middle;whiteSpace=wrap;rounded=0;" vertex="1" parent="1">
          <mxGeometry y="662" width="60" height="30" as="geometry" />
        </mxCell>
        <mxCell id="PI9V1V8THwJFbOwniwM3-62" value="" style="strokeWidth=2;html=1;shape=mxgraph.flowchart.annotation_2;align=left;labelPosition=right;pointerEvents=1;" vertex="1" parent="1">
          <mxGeometry x="66" y="340" width="51" height="674" as="geometry" />
        </mxCell>
      </root>
    </mxGraphModel>
  </diagram>
</mxfile>
